<svg xmlns="http://www.w3.org/2000/svg" width="200" height="280" viewBox="0 0 200 280"><rect width="100%" height="100%" fill="#0d1117"/><path fill="#8b949e" d="M53.64 130.13h3.2v19.52h-1.86q-.43 0-.73-.14-.29-.14-.56-.48L43.5 136.02q.08.89.08 1.64v11.99h-3.2v-19.52h1.91q.23 0 .4.02.16.02.29.08t.25.18q.12.11.27.3l10.23 13.07q-.04-.47-.06-.93-.03-.46-.03-.85zm13.15 5.45q1.54 0 2.8.5t2.16 1.42 1.38 2.24q.49 1.32.49 2.96t-.49 2.97q-.48 1.32-1.38 2.25t-2.16 1.43-2.8.5q-1.55 0-2.82-.5t-2.17-1.43-1.39-2.25q-.49-1.33-.49-2.97t.49-2.96 1.39-2.24 2.17-1.42 2.82-.5m0 11.71q1.73 0 2.56-1.16t.83-3.41q0-2.24-.83-3.41-.83-1.18-2.56-1.18-1.76 0-2.6 1.19-.84 1.18-.84 3.4 0 2.23.84 3.4t2.6 1.17m20.1-7.35h2.71q1 0 1.75-.25.74-.25 1.23-.71.49-.47.74-1.14.24-.66.24-1.49 0-.78-.24-1.41-.25-.64-.73-1.08-.49-.45-1.23-.69-.74-.23-1.76-.23h-2.71zm-3.63-9.81h6.34q1.96 0 3.39.46t2.37 1.28q.93.82 1.38 1.97t.45 2.51q0 1.42-.47 2.6t-1.42 2.03q-.94.85-2.37 1.33-1.42.47-3.33.47h-2.71v6.87h-3.63zm22.31 5.45q1.54 0 2.81.5 1.26.5 2.16 1.42.89.92 1.38 2.24t.49 2.96-.49 2.97q-.49 1.32-1.38 2.25-.9.93-2.16 1.43-1.27.5-2.81.5-1.55 0-2.82-.5t-2.16-1.43q-.9-.93-1.39-2.25-.5-1.33-.5-2.97t.5-2.96q.49-1.32 1.39-2.24.89-.92 2.16-1.42t2.82-.5m0 11.71q1.73 0 2.56-1.16t.83-3.41q0-2.24-.83-3.41-.83-1.18-2.56-1.18-1.75 0-2.59 1.19-.85 1.18-.85 3.4 0 2.23.85 3.4.84 1.17 2.59 1.17m18.59-9.99-.75 1.2q-.14.21-.29.3-.14.09-.37.09-.25 0-.52-.13-.28-.14-.64-.31-.37-.17-.83-.3-.47-.14-1.1-.14-.99 0-1.55.42t-.56 1.09q0 .45.29.75.29.31.77.54t1.09.41q.6.18 1.23.4.63.21 1.24.49.6.28 1.08.7.48.43.77 1.02.29.6.29 1.43 0 1-.35 1.85-.36.84-1.06 1.45-.71.62-1.74.96-1.03.35-2.38.35-.72 0-1.4-.13t-1.31-.36-1.16-.54-.94-.67l.77-1.27q.15-.23.35-.35.2-.13.52-.13.31 0 .58.18.28.17.64.38.37.2.86.38.49.17 1.25.17.59 0 1.02-.14.42-.14.7-.37t.41-.54q.12-.3.12-.62 0-.49-.29-.8t-.77-.54q-.47-.23-1.09-.41-.61-.18-1.25-.4-.65-.22-1.26-.51t-1.09-.73q-.48-.45-.77-1.1-.29-.64-.29-1.56 0-.85.33-1.62.34-.77 1-1.34.65-.58 1.63-.92.98-.35 2.26-.35 1.43 0 2.61.48 1.17.47 1.95 1.24m7.28 12.57q-1.81 0-2.77-1.02-.97-1.02-.97-2.82v-7.73h-1.42q-.27 0-.46-.18-.18-.17-.18-.53v-1.32l2.22-.36.71-3.78q.06-.27.25-.42t.49-.15h1.73v4.36h3.69v2.38h-3.69v7.5q0 .65.31 1.02.32.36.87.36.31 0 .52-.07.21-.08.37-.16.15-.08.27-.16.13-.07.25-.07.15 0 .24.07.1.08.2.23l1 1.62q-.73.61-1.67.92-.95.31-1.96.31m8.06-8.74h6.29q0-.65-.18-1.22t-.55-1.01q-.36-.43-.92-.68t-1.31-.25q-1.44 0-2.27.83-.83.82-1.06 2.33m8.51 2.01h-8.58q.08 1.07.38 1.85.3.77.78 1.28.49.5 1.16.75t1.48.25 1.39-.18q.59-.19 1.03-.42t.77-.42.64-.19q.42 0 .62.31l.96 1.21q-.55.65-1.24 1.09t-1.44.7q-.75.27-1.53.37-.77.11-1.5.11-1.45 0-2.69-.48t-2.16-1.41q-.92-.94-1.44-2.33-.53-1.38-.53-3.2 0-1.42.46-2.67t1.32-2.17q.85-.93 2.09-1.47 1.23-.54 2.79-.54 1.31 0 2.41.42 1.11.42 1.91 1.22.79.81 1.25 1.97.45 1.17.45 2.67 0 .76-.16 1.02-.17.26-.62.26m6.22-6.5.2 1.56q.65-1.24 1.54-1.95t2.11-.71q.95 0 1.54.42l-.22 2.5q-.07.24-.2.34-.12.1-.34.1-.2 0-.6-.06-.4-.07-.78-.07-.55 0-.98.16-.44.16-.78.47-.34.3-.61.73-.26.43-.49.99v8.53h-3.33V135.8h1.95q.52 0 .72.18t.27.66"/></svg>